# xmcd CD database file
#
# Track frame offsets:
#	150
#	20533
#	35633
#	60637
#	80613
#	94284
#	105977
#	125166
#	138775
#	164584
#	185115
#	200565
#	220504
#
# Disc length: 3127 seconds
#
# Revision: 0
# Processed by: cddbd v1.5.2PL0 Copyright (c) Steve Scherf et al.
# Submitted via: CDex 1.77
#
DISCID=bb0c350d
DTITLE=Kevin Texas Band - Louisiana Rain
DYEAR=2008
DGENRE=Blues
TTITLE0=Baby Chile
TTITLE1=Dis she say
TTITLE2=Long leg blues
TTITLE3=Don't ever let nobody drag your spirit down
TTITLE4=Tribute to Rod Piazza
TTITLE5=Sweet baby
TTITLE6=I'm ready
TTITLE7=Changes
TTITLE8=Worried down with the blues
TTITLE9=Loise
TTITLE10=Chicken shak boogie
TTITLE11=Blue and black
TTITLE12=Louisiana Rain
EXTD=YEAR: 2008
EXTT0=
EXTT1=
EXTT2=
EXTT3=
EXTT4=
EXTT5=
EXTT6=
EXTT7=
EXTT8=
EXTT9=
EXTT10=
EXTT11=
EXTT12=
PLAYORDER=
